<?xml version="1.0" encoding="utf-8"?>
<!-- Generator: Adobe Illustrator 27.1.0, SVG Export Plug-In . SVG Version: 6.00 Build 0)  -->
<svg version="1.1" id="Layer_1" xmlns="http://www.w3.org/2000/svg" xmlns:xlink="http://www.w3.org/1999/xlink" x="0px"
	y="0px" viewBox="0 0 1052.9 1109.9" style="enable-background:new 0 0 1052.9 1109.9;" xml:space="preserve">
	<style type="text/css">
		.st0 {
			fill: #00E0FF;
		}
	</style>
	<g>
		<path class="st0" d="M880.4,925.4H511.1v-0.1l-10.3,0c-15.3-0.1-22.8-0.1-27.8,1.6c-4.6,1.5-9.9,5.4-20.2,12.8l-12.6,9l0,0
		l-1.3,0.8c-7.5,4.2-17,1.6-21.2-5.9l-178.5-316c-4.5-7-2.7-16.4,4.3-21.2c14.6-10,32.7-23.1,47.5-34.6
		c10.7-8.3,18.9-15.2,21.3-18.3c3.5-4.5,8-15.3,12.9-28.9c5-13.9,10.7-32,16.3-49.6l0.6-1.6c0,0-0.1,0,0,0
		c2.6-7.7,15.8-46.3,46.9-83.7c25.7-30.8,83.7-72.3,134.6-108.8c27.2-19.5,52.4-37.5,68.6-51c43.6-38.7,46.8-65.8,50.2-95.5
		c2.7-22.9,5.5-47.1,22.2-77.9c6-11.1,13.3-19.6,23.4-25.3c10-5.6,22.1-8,37.5-6.8c13.5,1.1,24.9,5.5,34.6,12.3
		c9.3,6.5,16.7,15.1,22.7,24.7c15.5,24.6,25.1,59.7,27.2,94.5c2,33.2-2.9,66.6-15.9,91.1l-0.5,1c-8.8,16.1-19.8,34.1-30.6,52
		c-14.9,24.5-29.7,48.8-39.7,70c-1.7,3.6-2.4,5.5-2.1,5.7c3.9,3.1,13.5,4.6,28.9,4.6H939c26.1,0,48.8,9.9,65.3,25.8
		c17,16.5,27.1,39.3,27.1,64.2c0,33.2-14.4,54.4-35.7,67.6c-2.8,1.7-5.7,3.3-8.7,4.8c1.7,1.2,3.3,2.6,4.9,3.9
		c16.7,14.3,26.6,34.7,26.6,59.5c0,36.6-16.7,57.2-40.6,68.8c-1.8,0.9-3.7,1.7-5.6,2.5l0.3,0.2c16.1,12.9,25.3,31.2,25.2,55.8
		c-0.2,35.9-17.2,56.1-41.1,67.6l-2.7,1.2c14.7,10.7,23.2,26.5,23.2,50.1c0,24.6-10.5,42.6-27.7,54.9
		C931.6,919.8,907.1,925.4,880.4,925.4L880.4,925.4z" />
		<path class="st0" d="M41.2,666l117.9-68c8-4.6,17-5.5,25.2-3.3c8.2,2.2,15.6,7.5,20.2,15.5l206.4,357.6c4.6,7.9,5.5,17,3.3,25.2
		c-2.2,8.2-7.6,15.6-15.5,20.2l-117.9,68c-8,4.6-17,5.5-25.2,3.3c-8.2-2.2-15.6-7.5-20.2-15.5L29,711.4c-4.6-8-5.5-17-3.3-25.2
		C27.9,678,33.2,670.6,41.2,666L41.2,666z" />
	</g>
</svg>