<?xml version="1.0" encoding="utf-8"?>
<!-- Generator: Adobe Illustrator 27.1.0, SVG Export Plug-In . SVG Version: 6.00 Build 0)  -->
<svg version="1.1" stroke-width="3" id="_x2018_ëîé_x5F_1" xmlns="http://www.w3.org/2000/svg" xmlns:xlink="http://www.w3.org/1999/xlink"
	x="0px" y="0px" viewBox="0 0 2201.5 1954.9" style="enable-background:new 0 0 2201.5 1954.9;" xml:space="preserve">
	<style type="text/css">
		.st0 {
			fill: #F2F2F2;
		}
	</style>
	<g>
		<g>
			<path class="st0" d="M755.8,1911.9c-16.8,0-33.5-5.9-47.2-17.4c-25-21.1-33-55.3-19.9-85.3l116.8-268.1H299.4
			c-134.4,0-243.7-109.3-243.7-243.7V300.7C55.7,166.3,165,57,299.4,57h1601.7c134.4,0,243.7,109.3,243.7,243.7v996.7
			c0,134.4-109.3,243.7-243.7,243.7h-557.5l-547.5,358.7C783.7,1907.9,769.7,1911.9,755.8,1911.9z M299.4,136.1
			c-90.8,0-164.7,73.9-164.7,164.7v996.7c0,90.8,73.9,164.7,164.7,164.7h566.5c10.9,0,21.3,4.5,28.8,12.4
			c7.5,7.9,11.3,18.6,10.7,29.5c-0.3,4.6-1.4,9.2-3.2,13.4L769,1823l541.1-354.5c6.4-4.2,14-6.5,21.7-6.5h569.3
			c90.8,0,164.7-73.9,164.7-164.7V300.7c0-90.8-73.9-164.7-164.7-164.7H299.4z" />
		</g>
		<g>
			<g>
				<path class="st0" d="M1709.9,517.5H490.6c-21.8,0-39.5-17.7-39.5-39.5c0-21.8,17.7-39.5,39.5-39.5h1219.4
				c21.8,0,39.5,17.7,39.5,39.5C1749.5,499.8,1731.8,517.5,1709.9,517.5z" />
			</g>
			<g>
				<path class="st0" d="M1709.9,838.9H490.6c-21.8,0-39.5-17.7-39.5-39.5c0-21.8,17.7-39.5,39.5-39.5h1219.4
				c21.8,0,39.5,17.7,39.5,39.5C1749.5,821.2,1731.8,838.9,1709.9,838.9z" />
			</g>
			<g>
				<path class="st0" d="M1100.3,1160.4H490.6c-21.8,0-39.5-17.7-39.5-39.5s17.7-39.5,39.5-39.5h609.8c21.8,0,39.5,17.7,39.5,39.5
				S1122.2,1160.4,1100.3,1160.4z" />
			</g>
		</g>
	</g>
</svg>