<?xml version="1.0" encoding="utf-8"?>
<!-- Generator: Adobe Illustrator 27.1.0, SVG Export Plug-In . SVG Version: 6.00 Build 0)  -->
<svg version="1.1" id="Layer_1" xmlns="http://www.w3.org/2000/svg" xmlns:xlink="http://www.w3.org/1999/xlink" x="0px"
	y="0px" viewBox="0 0 488 518.2" style="enable-background:new 0 0 488 518.2;" xml:space="preserve">
	<style type="text/css">
		.st0 {
			fill: #F2F2F2;
		}
	</style>
	<path class="st0" d="M386.2,329.3c-7,0-13.8,0.8-20.3,2.4c-6.5,1.6-12.8,3.9-18.6,6.8c-5.9,3-11.4,6.6-16.4,10.7
	c-5,4.1-9.6,8.8-13.6,14l-33.4-18.7l-33.4-18.7l-33.4-18.7l-33.4-18.7c0.8-2.2,1.5-4.5,2.1-6.9c0.6-2.3,1.1-4.7,1.5-7.1
	c0.4-2.4,0.7-4.8,0.9-7.3c0.2-2.5,0.3-4.9,0.3-7.4c0-2.5-0.1-5-0.3-7.5c-0.2-2.5-0.5-4.9-0.9-7.3c-0.4-2.4-0.9-4.8-1.5-7.1
	c-0.6-2.3-1.3-4.6-2.1-6.9l33.4-18.6l33.4-18.6l33.4-18.6l33.4-18.6c4,5.2,8.5,9.9,13.5,14.1c5,4.2,10.5,7.8,16.4,10.8
	c5.9,3,12.1,5.3,18.7,6.9c6.5,1.6,13.4,2.4,20.4,2.4c12,0,23.4-2.4,33.8-6.8c10.4-4.4,19.8-10.8,27.7-18.7
	c7.9-7.9,14.3-17.2,18.7-27.6c4.4-10.4,6.9-21.8,6.9-33.8c0-12-2.4-23.4-6.8-33.8c-4.4-10.4-10.8-19.8-18.6-27.6
	c-7.9-7.9-17.2-14.2-27.6-18.6c-10.4-4.4-21.8-6.8-33.8-6.8c-12,0-23.4,2.4-33.8,6.8c-10.4,4.4-19.8,10.8-27.6,18.6
	c-7.9,7.9-14.2,17.2-18.6,27.6c-4.4,10.4-6.8,21.8-6.8,33.8c0,2.5,0.1,5,0.3,7.5c0.2,2.5,0.5,4.9,0.9,7.3c0.4,2.4,0.9,4.8,1.5,7.1
	c0.6,2.3,1.3,4.6,2.1,6.9l-33.4,18.6l-33.4,18.6L204,188.4l-33.4,18.6c-4-5.2-8.5-9.9-13.5-14.1c-5-4.2-10.5-7.8-16.4-10.8
	c-5.9-3-12.1-5.3-18.7-6.9c-6.5-1.6-13.4-2.4-20.4-2.4c-12,0-23.4,2.4-33.8,6.8s-19.8,10.8-27.7,18.6c-7.9,7.9-14.3,17.2-18.7,27.6
	c-4.4,10.4-6.9,21.8-6.9,33.8c0,12,2.4,23.4,6.9,33.8c4.4,10.4,10.8,19.8,18.7,27.6c7.9,7.9,17.3,14.2,27.7,18.7
	c10.4,4.4,21.9,6.8,33.8,6.8c7,0,13.8-0.8,20.4-2.4s12.8-3.9,18.7-6.9c5.9-3,11.4-6.6,16.4-10.8s9.6-8.9,13.6-14.1l33.4,18.7
	l33.4,18.7l33.4,18.7l33.4,18.7c-0.8,2.3-1.5,4.6-2.2,6.9c-0.6,2.4-1.2,4.7-1.6,7.2c-0.4,2.4-0.8,4.9-1,7.4c-0.2,2.5-0.3,5-0.3,7.5
	c0,12,2.4,23.4,6.8,33.8c4.4,10.4,10.8,19.8,18.6,27.7c7.9,7.9,17.2,14.3,27.6,18.7c10.4,4.4,21.8,6.9,33.8,6.9
	c12,0,23.4-2.4,33.8-6.8c10.4-4.4,19.8-10.8,27.6-18.7c7.9-7.9,14.2-17.2,18.6-27.6c4.4-10.4,6.8-21.8,6.8-33.8
	c0-12-2.4-23.4-6.9-33.8c-4.4-10.4-10.8-19.8-18.7-27.6c-7.9-7.9-17.3-14.2-27.7-18.6C409.7,331.7,398.2,329.3,386.2,329.3z
	 M386.2,44.1c8.2,0,16.1,1.7,23.2,4.7c7.1,3,13.6,7.4,19,12.8c5.4,5.4,9.8,11.8,12.8,19c3,7.1,4.7,15,4.7,23.2
	c0,8.2-1.7,16.1-4.7,23.2c-3,7.1-7.4,13.6-12.8,19c-5.4,5.4-11.8,9.8-19,12.8c-7.1,3-15,4.7-23.2,4.7c-8.2,0-16.1-1.7-23.2-4.7
	c-7.1-3-13.6-7.4-19-12.8c-5.4-5.4-9.8-11.8-12.8-19c-3-7.1-4.7-15-4.7-23.2c0-8.2,1.7-16.1,4.7-23.2c3-7.1,7.4-13.6,12.8-19
	c5.4-5.4,11.8-9.8,19-12.8C370.2,45.8,378,44.1,386.2,44.1z M101.8,319.6c-8.2,0-16.1-1.7-23.2-4.7c-7.1-3-13.6-7.4-19-12.8
	s-9.8-11.8-12.8-19s-4.7-15-4.7-23.2c0-8.2,1.7-16.1,4.7-23.2c3-7.1,7.4-13.6,12.8-19s11.8-9.8,19-12.8c7.1-3,15-4.7,23.2-4.7
	c8.2,0,16.1,1.7,23.2,4.7c7.1,3,13.6,7.4,19,12.8c5.4,5.4,9.8,11.8,12.8,19c3,7.1,4.7,15,4.7,23.2c0,8.2-1.7,16.1-4.7,23.2
	c-3,7.1-7.4,13.6-12.8,19c-5.4,5.4-11.8,9.8-19,12.8S110,319.6,101.8,319.6z M386.2,475.9c-8.2,0-16.1-1.7-23.2-4.7
	c-7.1-3-13.6-7.4-19-12.8c-5.4-5.4-9.8-11.8-12.8-19c-3-7.1-4.7-15-4.7-23.2c0-8.2,1.7-16.1,4.7-23.2c3-7.1,7.4-13.6,12.8-19
	c5.4-5.4,11.8-9.8,19-12.8s15-4.7,23.2-4.7c8.2,0,16.1,1.7,23.2,4.7c7.1,3,13.6,7.4,19,12.8c5.4,5.4,9.8,11.8,12.8,19
	c3,7.1,4.7,15,4.7,23.2c0,8.2-1.7,16.1-4.7,23.2c-3,7.1-7.4,13.6-12.8,19c-5.4,5.4-11.8,9.8-19,12.8
	C402.3,474.2,394.4,475.9,386.2,475.9z" />
</svg>