<?xml version="1.0" encoding="utf-8"?>
<!-- Generator: Adobe Illustrator 27.1.0, SVG Export Plug-In . SVG Version: 6.00 Build 0)  -->
<svg version="1.1" id="Layer_1" xmlns="http://www.w3.org/2000/svg" xmlns:xlink="http://www.w3.org/1999/xlink" x="0px" y="0px"
	 viewBox="0 0 1044.9 1088.6" style="enable-background:new 0 0 1044.9 1088.6;" xml:space="preserve">
<style type="text/css">
	.st0{fill:#F8C617;}
	.st1{fill:#C94506;}
	.st2{fill:#1C1103;}
	.st3{fill:#DADBD9;}
	.st4{fill:#919191;}
	.st5{fill:#0569AF;}
</style>
<g>
	<g>
		<g>
			<g>
				<path class="st0" d="M1015.5,532.6C1005,799.8,780,1007.9,512.8,997.5C245.7,987,37.6,762,48,494.8
					C58.4,227.7,283.5,19.6,550.6,30C817.8,40.4,1025.9,265.5,1015.5,532.6z"/>
				<g>
					<path class="st1" d="M512.8,999c-129.6-5.1-249.5-60.3-337.6-155.5C87.1,748.2,41.4,624.4,46.4,494.8
						c5.1-129.6,60.3-249.5,155.5-337.6C297.2,69.1,421.1,23.4,550.7,28.4C680.3,33.5,800.2,88.7,888.3,184
						c88.1,95.2,133.8,219.1,128.7,348.7c-5.1,129.6-60.3,249.5-155.5,337.6C766.2,958.4,642.4,1004.1,512.8,999z M550.6,31.5
						C284.7,21.2,59.9,229,49.5,494.9C39.2,760.8,247,985.5,512.9,995.9c265.9,10.4,490.6-197.5,501-463.4
						C1024.3,266.7,816.4,41.9,550.6,31.5z"/>
					<path class="st1" d="M512.7,999.9c-129.9-5.1-250-60.4-338.2-155.8c-88.2-95.4-134-219.5-129-349.3
						c5.1-129.9,60.4-250,155.8-338.2c95.4-88.2,219.5-134,349.3-129c129.9,5.1,250,60.4,338.2,155.8c88.2,95.4,134,219.5,129,349.3
						c-5.1,129.9-60.4,250-155.8,338.2C766.7,959.2,642.6,1005,512.7,999.9z M550.7,29.3c-129.4-5.1-253,40.6-348.1,128.5
						c-95.1,87.9-150.2,207.6-155.3,337c-5.1,129.4,40.6,253,128.5,348.1c87.9,95.1,207.6,150.2,337,155.3
						c129.4,5.1,253-40.6,348.1-128.5c95.1-87.9,150.2-207.6,155.3-337c5.1-129.4-40.6-253-128.5-348.1
						C799.7,89.5,680,34.4,550.7,29.3z M512.9,996.8C246.5,986.4,38.3,761.2,48.7,494.9C59.1,228.5,284.2,20.3,550.6,30.7
						c266.4,10.4,474.6,235.6,464.2,501.9C1004.4,799,779.2,1007.2,512.9,996.8z M550.5,32.4C285.1,22.1,60.8,229.5,50.4,494.9
						C40.1,760.3,247.5,984.7,512.9,995c265.4,10.4,489.7-197.1,500.1-462.5C1023.4,267.1,815.9,42.8,550.5,32.4z"/>
				</g>
			</g>
			
				<image style="overflow:visible;" width="509" height="619" xlink:href="A190C71C.png"  transform="matrix(1 0 0 1 500.9508 84.6202)">
			</image>
			
				<image style="overflow:visible;" width="452" height="573" xlink:href="A190C71D.png"  transform="matrix(1 0 0 1 54.9508 37.6202)">
			</image>
			
				<image style="overflow:visible;" width="591" height="488" xlink:href="A190C71B.png"  transform="matrix(1 0 0 1 366.9508 500.6201)">
			</image>
			
				<image style="overflow:visible;" width="510" height="523" xlink:href="A190C724.png"  transform="matrix(1 0 0 1 47.9508 458.6201)">
			</image>
		</g>
		
			<image style="overflow:visible;" width="404" height="484" xlink:href="A190C727.png"  transform="matrix(1 0 0 1 56.9508 477.6201)">
		</image>
		
			<image style="overflow:visible;" width="332" height="592" xlink:href="A190C725.png"  transform="matrix(1 0 0 1 317.9508 80.6202)">
		</image>
		<path class="st2" d="M755.3,247c-18.8-28.2-66.4-58.9-126.4-47C665,169.4,730.2,168.2,755.3,247z"/>
		<path class="st2" d="M229.9,237.5c20.3-27.2,69.5-55.2,128.7-40.1C324.3,164.9,259.3,160.2,229.9,237.5z"/>
		<g>
			<g>
				<path class="st1" d="M202,657.3c-10.8-0.4-16.8-4.9-17.1-5.1l0,0c0,0,3.6,0.8,9.6,1c9.2,0.4,23.6-0.6,39.9-7.2
					c27.1-10.9,35.7-31.6,36.6-33.9l0,0c-0.1,0.2-3.7,26.2-34.6,38.7c-10.1,4.1-20.2,6.3-30,6.5C204.9,657.3,203.4,657.3,202,657.3z
					"/>
			</g>
		</g>
		<g>
			<g>
				<path class="st1" d="M706.2,659.5c-9.1-0.4-18.4-2.7-27.8-7c-29.7-13.5-32.8-37.5-32.8-37.7l-0.9-8l2.6,7.6
					c0.7,2.3,7.6,22.2,33.3,33.9c9.5,4.3,19.4,6.7,29.4,7.1c12,0.5,19.8-2.2,19.9-2.2l0,0c-0.3,0.2-7.1,6.1-19.9,6.4
					C708.8,659.6,707.5,659.6,706.2,659.5z"/>
			</g>
		</g>
		<g>
			<g>
				<path class="st0" d="M463.2,789c-41.2-0.5-62.3-22.6-62.5-22.8c0,0,17.1,43.7,60.8,44.3c2,0,3.9,0,5.8-0.1
					c40.9-1.5,54.7-45.8,54.7-45.8C521.8,764.8,505.2,789.4,463.2,789z"/>
			</g>
			<g>
				<g>
					<path class="st1" d="M463.2,789c-41.2-0.5-62.3-22.6-62.5-22.8c0,0,17.5,26.1,61.3,26.7c2,0,3.9,0,5.8-0.1
						c40.9-1.5,54.2-28.2,54.2-28.2C521.8,764.8,505.2,789.4,463.2,789z"/>
					<path class="st1" d="M459,793.6c-41.6-1.6-58.9-26.7-59.1-27l1.4-1.1c0.8,0.9,21.4,22,61.9,22.5c39.8,0.5,56.2-21.5,58-24
						l1.5,0.9c-0.1,0.3-14,27.2-55,28.7c-1.9,0.1-3.9,0.1-5.8,0.1C460.9,793.7,460,793.7,459,793.6z M410.8,775.1
						c9.3,7.4,25.9,16.6,51.2,16.8c1.9,0,3.9,0,5.8-0.1c20.9-0.8,34.5-8.2,42.8-15.2c-9.4,6.6-24.7,13.4-47.3,13.2
						C438.6,789.6,421,781.6,410.8,775.1z"/>
				</g>
			</g>
		</g>
		<g>
			<g>
				<g>
					<path class="st1" d="M474.7,735.8c-92.2,2.1-185-30.2-242-84.4l2.1-2.2c56.5,53.6,148.3,85.7,239.8,83.6
						c82.9-1.9,156.2-31.2,206.4-82.6l2.2,2.1C632.5,704.3,558.4,733.9,474.7,735.8z"/>
					<path class="st1" d="M451.4,736.5c-85.1-3.3-167.1-34.9-219.3-84.5l-0.6-0.6l3.3-3.5l0.6,0.6c51.3,48.8,132.1,79.8,216.1,83.1
						c7.7,0.3,15.5,0.4,23.1,0.2c82.7-1.9,155.8-31.1,205.8-82.3l0.6-0.6l3.5,3.4l-0.6,0.6C633,705,558.7,734.8,474.8,736.7
						C467.1,736.9,459.2,736.8,451.4,736.5z M234,651.4c51.9,48.9,133.1,80.1,217.5,83.4c7.7,0.3,15.6,0.4,23.2,0.2
						c83.1-1.9,156.7-31.2,207.3-82.6l-0.9-0.9c-50.3,51.1-123.6,80.3-206.4,82.2c-7.7,0.2-15.5,0.1-23.2-0.2
						c-84.1-3.3-165-34.3-216.6-83L234,651.4z"/>
				</g>
			</g>
		</g>
		<g>
			<path class="st3" d="M164,943.5c2.1,50-25.9,91.9-62.7,93.4c-36.7,1.6-68.2-37.7-70.4-87.8c-2.1-50,25.9-91.9,62.7-93.4
				C130.4,854.2,161.9,893.5,164,943.5z"/>
			<path class="st4" d="M97.2,1039C61,1037.6,31,998.1,29,949.2c-2.2-51.1,26.8-93.9,64.6-95.5c1.4-0.1,2.8-0.1,4.2,0
				c36.2,1.4,66.2,40.8,68.3,89.7c2.2,51.1-26.8,93.9-64.6,95.5C100.1,1039,98.6,1039,97.2,1039z M97.6,857.8c-1.3,0-2.6,0-3.9,0
				C58.2,859.3,31,900.2,33,949.1c2,46.8,30.3,84.5,64.4,85.8c1.3,0,2.6,0,3.9,0c35.5-1.5,62.8-42.5,60.7-91.3
				C160,896.8,131.7,859.1,97.6,857.8z"/>
		</g>
		
			<image style="overflow:visible;" width="97" height="113" xlink:href="A190C72B.png"  transform="matrix(1 0 0 1 33.9508 920.6202)">
		</image>
		
			<image style="overflow:visible;" width="91" height="116" xlink:href="A190C72C.png"  transform="matrix(1 0 0 1 33.9508 864.6202)">
		</image>
		<g>
			<path class="st3" d="M223.2,813.3c43-4.9,106.3,33.2,95.4,90.9c27.5,26.1,29.2,74.6,1.3,85.2c14.2,53.6-40.9,94.2-66.4,56
				c-20.9,27.2-82.6,26.7-122.3-0.8c-39.7-27.5-80.3-79.4-53.3-163.3c8.6-64.2,46.9-121.9,92.6-161.6c45.7-39.7,100.3-62,132-28.8
				c12.9,13.5,13.2,36.8,0.2,55.1C283.7,772.6,242.8,794.9,223.2,813.3z"/>
			<path class="st4" d="M195.3,1067.5c-23.5-0.9-47.4-8.6-65.5-21.2c-32.8-22.7-83.4-74.4-54.1-165.4c8-58.8,42-118.1,93.3-162.7
				c35-30.3,69.5-46.4,97.2-45.4c15,0.6,27.6,6.2,37.6,16.7c13.8,14.4,13.9,38.6,0.4,57.6c-12.3,17.3-33.5,32.7-52.3,46.2
				c-8.4,6.1-16.5,11.9-23,17.4c1.6,0,3.2,0,4.9,0c27,1.1,55.3,15.4,72.1,36.4c13.2,16.6,18.3,36,14.8,56.2
				c16,15.7,24.4,40.8,20.2,61.3c-2.5,12.4-9.1,21.4-18.8,25.8c4.8,19.9,0.7,39.7-11.2,54.5c-9,11.3-21.5,17.8-33.3,17.3
				c-9.6-0.4-18-5.1-24.5-13.7C241.8,1061.5,220.5,1068.5,195.3,1067.5z M266,677c-26.3-1-60.6,15.1-94.3,44.4
				c-50.7,44-84.2,102.4-92,160.3l-0.1,0.4c-28.6,88.7,20.6,138.9,52.5,161c17.5,12.1,40.6,19.6,63.3,20.4
				c25.2,1,46.2-6.2,56.3-19.3l1.7-2.3l1.6,2.4c5.9,8.9,13.8,13.7,22.8,14.1c10.5,0.4,21.7-5.5,30-15.8c11.4-14.3,15.1-33.5,10-52.7
				l-0.5-1.8l1.7-0.7c9.2-3.5,15.6-11.9,17.9-23.5c3.9-19.6-4.3-43.6-19.9-58.3l-0.8-0.8l0.2-1.1c3.7-19.4-1.1-38-13.8-54
				c-15.8-19.9-43.6-33.9-69-34.9c-3.6-0.1-7,0-10.3,0.4l-6.1,0.7l4.5-4.2c7.2-6.7,17.2-14,27.8-21.6c18.5-13.4,39.5-28.6,51.4-45.3
				c12.4-17.4,12.3-39.5-0.1-52.5C291.6,682.7,279.9,677.5,266,677z"/>
		</g>
		<g>
			<path class="st4" d="M186.2,831.9c0,0,15.7-20.6,45.5-21.1l0.1,4.1C203.6,815.4,186.3,831.8,186.2,831.9z"/>
		</g>
		<g>
			<path class="st4" d="M320.3,909c-30-31.7-79.3-28.8-79.8-28.7c0,0,51.5-7.2,82.8,25.9L320.3,909z"/>
		</g>
		<g>
			<path class="st4" d="M318.8,992.8c-7.8-34.5-61.4-44.5-61.9-44.6c0,0,57.5,6.6,65.9,43.7L318.8,992.8z"/>
		</g>
		<g>
			<path class="st4" d="M251.4,1046c-5.8-19.1,13-26,13-26h0c-0.6,0.4-14,8.8-9.1,24.8L251.4,1046z"/>
		</g>
		
			<image style="overflow:visible;" width="427" height="276" xlink:href="A190C72F.png"  transform="matrix(1 0 0 1 269.9508 66.6202)">
		</image>
		
			<image style="overflow:visible;" width="192" height="125" xlink:href="59ECC76B.png"  transform="matrix(1 0 0 1 392.9508 146.6202)">
		</image>
		
			<image style="overflow:visible;" width="441" height="158" xlink:href="59ECC769.png"  transform="matrix(1 0 0 1 223.9508 577.6202)">
		</image>
		
			<image style="overflow:visible;" width="394" height="247" xlink:href="59ECC76F.png"  transform="matrix(1 0 0 1 246.9508 486.6201)">
		</image>
		
			<image style="overflow:visible;" width="335" height="81" xlink:href="59ECC76A.png"  transform="matrix(1 0 0 1 295.9508 700.6202)">
		</image>
		
			<image style="overflow:visible;" width="148" height="58" xlink:href="59ECC775.png"  transform="matrix(1 0 0 1 387.9508 737.6202)">
		</image>
		
			<image style="overflow:visible;opacity:0.6;" width="338" height="87" xlink:href="59ECC776.png"  transform="matrix(1 0 0 1 276.9508 642.6202)">
		</image>
		
			<image style="overflow:visible;" width="65" height="26" xlink:href="59ECC777.png"  transform="matrix(1 0 0 1 481.9508 699.6202)">
		</image>
		
			<image style="overflow:visible;opacity:0.6;" width="68" height="21" xlink:href="59ECC779.png"  transform="matrix(1 0 0 1 419.9508 763.6202)">
		</image>
		
			<image style="overflow:visible;" width="191" height="139" xlink:href="59ECC77B.png"  transform="matrix(1 0 0 1 85.9508 924.6202)">
		</image>
		
			<image style="overflow:visible;" width="132" height="77" xlink:href="59ECC77E.png"  transform="matrix(1 0 0 1 184.9508 814.6202)">
		</image>
		
			<image style="overflow:visible;" width="183" height="186" xlink:href="59ECC792.png"  transform="matrix(1 0 0 1 128.9508 675.6202)">
		</image>
		
			<image style="overflow:visible;" width="210" height="184" xlink:href="59ECC791.png"  transform="matrix(1 0 0 1 92.9508 675.6202)">
		</image>
		
			<image style="overflow:visible;" width="206" height="210" xlink:href="59ECC79E.png"  transform="matrix(1 0 0 1 73.9508 826.6202)">
		</image>
		
			<image style="overflow:visible;" width="151" height="154" xlink:href="59ECC790.png"  transform="matrix(1 0 0 1 122.9508 847.6202)">
		</image>
		
			<image style="overflow:visible;" width="192" height="314" xlink:href="59ECC793.png"  transform="matrix(1 0 0 1 578.9508 232.6202)">
		</image>
		<g>
			<g>
				
					<image style="overflow:visible;" width="156" height="268" xlink:href="59ECC797.png"  transform="matrix(1 0 0 1 601.9508 269.6201)">
				</image>
				<path class="st2" d="M601.9,412.8c-4.4-36-0.7-70.9,10.7-98.3c11.5-27.8,27.4-52.5,48.5-55.1c3-0.4,6.1-0.4,9.1-0.2
					c40.3,3,79.3,65.2,87.8,134.3c4.4,36,0.7,70.9-10.6,98.2c-11.5,27.8-29.5,44.6-50.6,47.2c-3,0.4-6.1,0.5-9.1,0.2
					C647.2,536.3,610.4,482,601.9,412.8z M663.8,272.7c-19.1,2.4-35.6,18-46.4,44c-11,26.5-14.6,60.4-10.3,95.6
					c8.2,66.7,42.9,119,80.7,121.8c2.7,0.2,5.4,0.1,8.1-0.2c19.1-2.4,35.6-18,46.4-44c11-26.5,14.6-60.4,10.3-95.6
					c-8.2-66.6-42.9-119-80.7-121.8C669.2,272.3,666.5,272.3,663.8,272.7z"/>
			</g>
			<g>
				
					<image style="overflow:visible;" width="98" height="169" xlink:href="59ECC796.png"  transform="matrix(1 0 0 1 632.9508 337.6201)">
				</image>
				<g>
					<path class="st5" d="M631.8,428c-2.8-22.9-0.4-45,6.8-62.4c7.4-17.9,19-28.6,32.7-30.3c2-0.2,4-0.3,5.9-0.1
						c25.8,1.9,49.4,36.5,54.8,80.5c2.8,22.9,0.4,45-6.8,62.4c-7.4,17.9-19,28.7-32.7,30.3c-2,0.2-4,0.3-5.9,0.1
						C660.8,506.6,637.2,472,631.8,428z M671.9,340.6c-11.7,1.4-21.8,11.1-28.4,27.1c-6.8,16.5-9.1,37.7-6.4,59.7
						c5.1,41.5,26.6,74.1,50,75.8c1.6,0.1,3.3,0.1,4.9-0.1c11.7-1.4,21.8-11.1,28.4-27.1c6.8-16.5,9.1-37.7,6.4-59.7
						c-5.1-41.5-26.6-74.1-49.9-75.8C675.2,340.4,673.5,340.4,671.9,340.6z"/>
				</g>
			</g>
			<g>
				<path d="M653.7,432.6c3.6,28.9,19.7,50.6,36,48.6c16.3-2,26.7-27,23.1-55.9c-3.6-28.8-19.7-50.6-36-48.6
					C660.5,378.7,650.1,403.8,653.7,432.6z"/>
			</g>
			<g>
				<g>
					
						<image style="overflow:visible;" width="39" height="39" xlink:href="59ECC7AD.png"  transform="matrix(1 0 0 1 647.9508 375.6201)">
					</image>
				</g>
				<g>
					
						<image style="overflow:visible;" width="25" height="25" xlink:href="59ECC7AE.png"  transform="matrix(1 0 0 1 654.9508 382.6201)">
					</image>
				</g>
			</g>
			<g>
				<g>
					
						<image style="overflow:visible;" width="19" height="19" xlink:href="59ECC7AF.png"  transform="matrix(1 0 0 1 645.9508 417.6201)">
					</image>
				</g>
				<g>
					
						<image style="overflow:visible;" width="12" height="13" xlink:href="59ECC7B5.png"  transform="matrix(1 0 0 1 648.9508 420.6201)">
					</image>
				</g>
			</g>
			<g>
				<g>
					
						<image style="overflow:visible;" width="19" height="19" xlink:href="59ECC7B3.png"  transform="matrix(1 0 0 1 704.9508 468.6201)">
					</image>
				</g>
				<g>
					
						<image style="overflow:visible;" width="13" height="13" xlink:href="59ECC78D.png"  transform="matrix(1 0 0 1 707.9508 471.6201)">
					</image>
				</g>
			</g>
		</g>
		<g>
			<path class="st0" d="M760.4,513.2c0,0-73.7-47.3-146.4,10.3c0,0,30.3,39.6,86.7,38.1C757.1,560.1,760.4,513.2,760.4,513.2z"/>
			<g>
				<path class="st1" d="M615.6,525.5c0,0,16.7-17.8,26.5-22.1c31.2-13.9,60.8-12.2,82.7-6.9c22.2,5.4,34.2,18.9,34.2,18.9
					c-0.5-0.3-23.9-20-68.8-19.2C667.5,496.5,641.4,501.4,615.6,525.5z"/>
				<path class="st1" d="M616.2,526.1l-1.2-1.2c0.7-0.7,16.9-17.9,26.8-22.3c17.7-7.9,36.6-11.5,56.1-10.8c9,0.4,18.1,1.6,27.2,3.8
					c22.3,5.4,34.6,19,34.7,19.2l4.2,4.8l-5.6-3.6c-3.7-2.9-24.1-17.4-59.9-18.8c-2.7-0.1-5.5-0.1-8.2-0.1
					C669.9,497.3,643.2,500.9,616.2,526.1z M697.8,493.5c-19.3-0.7-37.9,2.8-55.3,10.6c-3.5,1.6-7.9,4.9-12.2,8.6
					c22.1-14.7,43.2-17.2,60-17.5c2.8,0,5.6,0,8.3,0.1c22.8,0.9,39.6,7.1,49.8,12.3c-5.7-3.8-13.6-7.9-23.7-10.3
					C715.7,495.1,706.7,493.9,697.8,493.5z"/>
			</g>
		</g>
		
			<image style="overflow:visible;" width="166" height="105" xlink:href="59ECC78F.png"  transform="matrix(1 0 0 1 613.9508 500.6201)">
		</image>
		
			<image style="overflow:visible;" width="122" height="68" xlink:href="59ECC78C.png"  transform="matrix(1 0 0 1 626.9508 497.6201)">
		</image>
		
			<image style="overflow:visible;" width="201" height="309" xlink:href="59ECC794.png"  transform="matrix(1 0 0 1 191.9508 230.6202)">
		</image>
		<g>
			<g>
				
					<image style="overflow:visible;" width="158" height="267" xlink:href="59ECC795.png"  transform="matrix(1 0 0 1 214.9508 266.6201)">
				</image>
				<path class="st2" d="M216.5,386.3c6.4-35.7,20.2-68,39.1-90.8c19.2-23.2,41.6-42.1,62.6-38.4c3,0.5,5.9,1.4,8.8,2.5
					c37.7,14.7,56.6,85.6,44.4,154.2c-6.4,35.7-20.2,68-39.1,90.8c-19.2,23.2-41.3,34-62.3,30.2c-3-0.5-5.9-1.4-8.8-2.5
					C223.5,517.7,204.3,454.9,216.5,386.3z M317,270.6c-19-3.4-39.3,6.7-57.2,28.4c-18.3,22.1-31.7,53.4-37.9,88.3
					c-11.8,66.1,6,126.4,41.3,140.1c2.5,1,5.1,1.7,7.8,2.2c19,3.4,39.3-6.7,57.2-28.4c18.3-22.1,31.8-53.5,37.9-88.3
					c11.8-66.1-6-126.4-41.3-140.1C322.2,271.8,319.6,271.1,317,270.6z"/>
			</g>
			<g>
				
					<image style="overflow:visible;" width="99" height="168" xlink:href="59ECC79A.png"  transform="matrix(1 0 0 1 240.9508 334.6201)">
				</image>
				<g>
					<path class="st5" d="M240.7,409.7c4-22.7,12.8-43.1,24.8-57.6c12.3-14.9,26.6-21.8,40.2-19.4c1.9,0.3,3.9,0.9,5.7,1.6
						c24.1,9.4,36.5,49.4,28.7,93.1c-4,22.7-12.8,43.1-24.8,57.6c-12.3,14.9-26.6,21.8-40.2,19.4c-1.9-0.3-3.9-0.9-5.7-1.6
						C245.3,493.3,232.9,453.3,240.7,409.7z M304.7,337.9c-11.6-2.1-24.1,4.2-35.1,17.5c-11.4,13.8-19.8,33.4-23.7,55.2
						c-7.3,41.2,3.6,78.7,25.4,87.2c1.5,0.6,3.1,1,4.7,1.3c11.6,2.1,24.1-4.2,35.1-17.5c11.4-13.8,19.8-33.4,23.7-55.2
						c7.3-41.2-3.6-78.7-25.4-87.2C307.9,338.7,306.3,338.2,304.7,337.9z"/>
				</g>
			</g>
			<g>
				<path d="M260.2,420.5c-5.1,28.6,3.9,54.1,20.1,57c16.2,2.9,33.5-18,38.5-46.6c5.1-28.6-3.9-54.2-20.1-57
					C282.6,371,265.3,391.9,260.2,420.5z"/>
			</g>
			<g>
				<g>
					
						<image style="overflow:visible;" width="39" height="38" xlink:href="59ECC79B.png"  transform="matrix(1 0 0 1 264.9508 369.6201)">
					</image>
				</g>
				<g>
					
						<image style="overflow:visible;" width="25" height="26" xlink:href="59ECC79C.png"  transform="matrix(1 0 0 1 271.9508 375.6201)">
					</image>
				</g>
			</g>
			<g>
				<g>
					
						<image style="overflow:visible;" width="19" height="20" xlink:href="59ECC7F8.png"  transform="matrix(1 0 0 1 253.9508 405.6201)">
					</image>
				</g>
				<g>
					
						<image style="overflow:visible;" width="13" height="12" xlink:href="59ECC7FB.png"  transform="matrix(1 0 0 1 256.9508 409.6201)">
					</image>
				</g>
			</g>
			<g>
				<g>
					
						<image style="overflow:visible;" width="20" height="19" xlink:href="59ECC7F9.png"  transform="matrix(1 0 0 1 294.9508 472.6201)">
					</image>
				</g>
				<g>
					
						<image style="overflow:visible;" width="12" height="13" xlink:href="59ECC7FF.png"  transform="matrix(1 0 0 1 298.9508 475.6201)">
					</image>
				</g>
			</g>
		</g>
		<g>
			<path class="st0" d="M348,520.8c0,0-68.9-54.1-146.8-3.6c0,0,26.4,42.3,82.7,46.2C340.2,567.2,348,520.8,348,520.8z"/>
			<g>
				<path class="st1" d="M202.6,519.3c0,0,18.3-16.1,28.5-19.5c32.3-10.9,61.6-6.4,83,1c21.6,7.4,32.3,22.1,32.3,22.1
					c-0.4-0.3-21.9-22.2-66.7-25.7C257.1,495.4,230.6,497.8,202.6,519.3z"/>
				<path class="st1" d="M350.9,527.4l-5.2-4.1c-3.9-3.7-25.4-22.1-66-25.3c-2-0.2-4-0.3-6.1-0.4c-16.9-0.7-42.6,0.9-70.4,22.3
					l-1.1-1.4c0.8-0.7,18.6-16.3,28.8-19.7c26.8-9,55.6-8.7,83.6,1c21.6,7.5,32.6,22.2,32.7,22.4L350.9,527.4z M273.7,495.9
					c2.1,0.1,4.1,0.2,6.1,0.4c27,2.1,45.8,10.9,56.6,17.8c-5.3-4.3-12.8-9.1-22.5-12.5c-27.6-9.5-56-9.9-82.4-1
					c-3.7,1.2-8.5,4.2-13.1,7.4C240.2,496.3,259.8,495.3,273.7,495.9z"/>
			</g>
		</g>
		
			<image style="overflow:visible;" width="166" height="106" xlink:href="59ECC7FA.png"  transform="matrix(1 0 0 1 197.9508 501.6201)">
		</image>
		
			<image style="overflow:visible;" width="122" height="68" xlink:href="59ECC7E5.png"  transform="matrix(1 0 0 1 212.9508 497.6201)">
		</image>
		
			<image style="overflow:visible;" width="115" height="63" xlink:href="59ECC7E6.png"  transform="matrix(1 0 0 1 205.9508 839.6202)">
		</image>
		
			<image style="overflow:visible;" width="122" height="99" xlink:href="59ECC7E7.png"  transform="matrix(1 0 0 1 218.9508 878.6202)">
		</image>
		
			<image style="overflow:visible;" width="96" height="78" xlink:href="59ECC7E8.png"  transform="matrix(1 0 0 1 225.9508 949.6202)">
		</image>
		
			<image style="overflow:visible;" width="100" height="89" xlink:href="59ECC7EB.png"  transform="matrix(1 0 0 1 229.9508 899.6202)">
		</image>
		
			<image style="overflow:visible;" width="71" height="71" xlink:href="59ECC7C7.png"  transform="matrix(1 0 0 1 252.9508 988.6202)">
		</image>
		<g>
		</g>
	</g>
</g>
</svg>
