<?xml version="1.0" encoding="utf-8"?>
<!-- Generator: Adobe Illustrator 27.1.0, SVG Export Plug-In . SVG Version: 6.00 Build 0)  -->
<svg version="1.1" id="Layer_1" xmlns="http://www.w3.org/2000/svg" xmlns:xlink="http://www.w3.org/1999/xlink" x="0px" y="0px"
	 viewBox="0 0 1052.9 1109.9" style="enable-background:new 0 0 1052.9 1109.9;" xml:space="preserve">
<style type="text/css">
	.st0{fill:#F2F2F2;}
</style>
<g>
	<path class="st0" d="M511.1,894.2h369.4c20.6,0,38.8-3.8,50.7-12.3c9-6.4,14.5-16.1,14.5-29.5c0-13.8-5-22.1-13.7-27.2
		c-11.1-6.4-28.2-9.2-48.6-10.8c-8.6-0.6-15-8.1-14.4-16.7c0.6-8.4,7.7-14.7,16-14.5c20.2-0.8,42-2.7,58-10.3
		c13.7-6.5,23.3-18.3,23.4-39.7c0.1-14.1-4.9-24.4-13.6-31.4c-10.7-8.6-27.3-13.2-47.5-14.6l-1-0.1c-8.6-0.5-15.1-7.9-14.6-16.5
		c0.5-8.3,7.4-14.7,15.6-14.7c20.7-0.1,42.9-1.5,58.8-9.3c13.5-6.5,23-18.7,23-40.8c0-15.2-5.8-27.4-15.6-35.8
		c-10.8-9.3-26.7-14.4-45.5-14.4c-8.6,0-15.6-7-15.6-15.6c0-8.6,7-15.6,15.6-15.6h0.5c19.3-1,38.6-4.5,52.6-13.2
		c12.5-7.8,20.9-20.6,20.9-41.1c0-16.3-6.5-31.2-17.5-41.8c-10.7-10.4-25.9-16.9-43.5-16.9H750c-22.5,0-38.6-3.7-48.2-11.4
		c-13.3-10.5-15.4-24.9-6.7-43.4c10.5-22.1,25.8-47.4,41.3-72.9c10.2-16.8,20.5-33.7,29.9-50.9l0.4-0.7
		c10.2-19.2,13.9-46.7,12.2-74.5c-1.8-29.9-9.8-59.6-22.5-79.7c-4-6.4-8.7-11.9-14.2-15.8l0,0c-5.2-3.6-11.5-6-19.1-6.6
		c-9-0.7-15.3,0.3-19.8,2.9c-4.4,2.5-7.9,6.9-11.3,13c-13.9,25.6-16.4,46.6-18.7,66.5c-4.2,35.9-8,68.7-61,115.6l-0.4,0.3l0,0
		c-17.4,14.4-42.8,32.6-70.3,52.3c-49.6,35.5-106.1,75.9-128.9,103.3c-27.3,32.7-38.9,67-41.3,73.8l-0.5,1.5
		c-5.3,16.9-10.8,34.3-16.6,50.3c-5.9,16.4-11.8,30-17.4,37.3c-4.3,5.6-14.5,14.3-26.9,24c-11.1,8.6-24.6,18.5-37.3,27.4
		l163.4,289.3c11.9-8.6,18.5-13.2,27.1-16c9.6-3.1,18.7-3.1,37.4-3L511.1,894.2L511.1,894.2z M880.4,925.4H511.1v-0.1l-10.3,0
		c-15.3-0.1-22.8-0.1-27.8,1.6c-4.6,1.5-9.9,5.4-20.2,12.8l-12.6,9l0,0l-1.3,0.8c-7.5,4.2-17,1.6-21.2-5.9l-178.5-316
		c-4.5-7-2.7-16.4,4.3-21.2c14.6-10,32.7-23.1,47.5-34.6c10.7-8.3,18.9-15.2,21.3-18.3c3.5-4.5,8-15.3,12.9-28.9
		c5-13.9,10.7-32,16.3-49.6l0.6-1.6c0,0-0.1,0,0,0c2.6-7.7,15.8-46.3,46.9-83.7c25.7-30.8,83.7-72.3,134.6-108.8
		c27.2-19.5,52.4-37.5,68.6-51c43.6-38.7,46.8-65.8,50.2-95.5c2.7-22.9,5.5-47.1,22.2-77.9c6-11.1,13.3-19.6,23.4-25.3
		c10-5.6,22.1-8,37.5-6.8c13.5,1.1,24.9,5.5,34.6,12.3c9.3,6.5,16.7,15.1,22.7,24.7c15.5,24.6,25.1,59.7,27.2,94.5
		c2,33.2-2.9,66.6-15.9,91.1l-0.5,1c-8.8,16.1-19.8,34.1-30.6,52c-14.9,24.5-29.7,48.8-39.7,70c-1.7,3.6-2.4,5.5-2.1,5.7
		c3.9,3.1,13.5,4.6,28.9,4.6H939c26.1,0,48.8,9.9,65.3,25.8c17,16.5,27.1,39.3,27.1,64.2c0,33.2-14.4,54.4-35.7,67.6
		c-2.8,1.7-5.7,3.3-8.7,4.8c1.7,1.2,3.3,2.6,4.9,3.9c16.7,14.3,26.6,34.7,26.6,59.5c0,36.6-16.7,57.2-40.6,68.8
		c-1.8,0.9-3.7,1.7-5.6,2.5l0.3,0.2c16.1,12.9,25.3,31.2,25.2,55.8c-0.2,35.9-17.2,56.1-41.1,67.6l-2.7,1.2
		c14.7,10.7,23.2,26.5,23.2,50.1c0,24.6-10.5,42.6-27.7,54.9C931.6,919.8,907.1,925.4,880.4,925.4L880.4,925.4z"/>
	<path class="st0" d="M174.6,624.9L56.8,693c-0.5,0.3-0.9,0.8-1,1.3c-0.1,0.6-0.1,1.2,0.1,1.6l206.4,357.5c0.3,0.5,0.8,0.8,1.3,1
		c0.6,0.2,1.2,0.1,1.6-0.1l117.8-68.1c0.5-0.3,0.8-0.8,1-1.3c0.1-0.6,0.1-1.1-0.1-1.6L177.5,625.7c-0.3-0.5-0.8-0.8-1.3-1
		C175.7,624.6,175.1,624.6,174.6,624.9L174.6,624.9z M41.2,666l117.9-68c8-4.6,17-5.5,25.2-3.3c8.2,2.2,15.6,7.5,20.2,15.5
		l206.4,357.6c4.6,7.9,5.5,17,3.3,25.2c-2.2,8.2-7.6,15.6-15.5,20.2l-117.9,68c-8,4.6-17,5.5-25.2,3.3c-8.2-2.2-15.6-7.5-20.2-15.5
		L29,711.4c-4.6-8-5.5-17-3.3-25.2C27.9,678,33.2,670.6,41.2,666L41.2,666z"/>
</g>
</svg>
